<svg width="406" height="42" fill="none" xmlns="http://www.w3.org/2000/svg"><path d="M15 8C9.01 8 4.135 12.874 4.135 18.865c0 7.435 9.723 18.35 10.137 18.81a.979.979 0 001.456 0c.414-.46 10.137-11.375 10.137-18.81C25.865 12.874 20.99 8 15 8zm0 16.331a5.473 5.473 0 01-5.466-5.466A5.472 5.472 0 0115 13.399a5.473 5.473 0 015.466 5.466A5.473 5.473 0 0115 24.33z" fill="url(#paint0_linear)"/><path d="M51.002 17l-.017-6.307-3.06 5.134h-1.496l-3.06-4.998V17h-3.094V5.1h2.771l4.182 6.868 4.08-6.868h2.771l.034 11.9h-3.111zm6.764.153a1.902 1.902 0 01-1.377-.544c-.374-.363-.56-.822-.56-1.377 0-.567.18-1.026.543-1.377.374-.351.839-.527 1.394-.527.567 0 1.032.176 1.394.527.363.351.544.81.544 1.377 0 .555-.187 1.014-.56 1.377-.363.363-.822.544-1.378.544zM77.133 17l-.017-6.307-3.06 5.134H72.56l-3.06-4.998V17h-3.094V5.1h2.77l4.183 6.868 4.08-6.868h2.77l.035 11.9h-3.111zm9.212-9.367c1.53 0 2.697.351 3.502 1.054.805.691 1.207 1.757 1.207 3.196V17h-3.009v-1.19c-.465.895-1.371 1.343-2.72 1.343-.714 0-1.332-.125-1.853-.374-.521-.25-.918-.584-1.19-1.003a2.767 2.767 0 01-.391-1.462c0-.873.334-1.547 1.003-2.023.669-.487 1.7-.731 3.094-.731h1.836c-.057-.975-.708-1.462-1.955-1.462-.442 0-.89.074-1.343.221a3.458 3.458 0 00-1.156.578l-1.088-2.193c.51-.34 1.128-.6 1.853-.782a8.703 8.703 0 012.21-.289zm-.119 7.48c.374 0 .703-.09.986-.272.283-.181.487-.448.612-.799v-.799H86.43c-.94 0-1.411.312-1.411.935 0 .283.108.51.323.68.215.17.51.255.884.255zm15.441-7.327V17h-2.873v-2.499h-1.462L95.7 17h-3.417l2.04-2.941c-.612-.272-1.082-.64-1.41-1.105-.318-.476-.477-1.043-.477-1.7 0-1.1.408-1.95 1.224-2.55.816-.612 1.938-.918 3.366-.918h4.641zm-4.573 2.55c-.906 0-1.36.346-1.36 1.037 0 .363.108.629.323.799.227.17.567.255 1.02.255h1.717v-2.091h-1.7zm11.062 3.383h-1.088V17h-3.23V7.786h3.23v3.4h1.156l2.261-3.4h3.417l-3.094 4.42L114.106 17h-3.808l-2.142-3.281zm11.294 3.434c-.986 0-1.875-.204-2.669-.612a4.686 4.686 0 01-1.87-1.7c-.442-.725-.663-1.547-.663-2.465 0-.907.221-1.723.663-2.448a4.59 4.59 0 011.853-1.683c.794-.408 1.689-.612 2.686-.612.998 0 1.893.204 2.686.612a4.441 4.441 0 011.853 1.683c.442.714.663 1.53.663 2.448 0 .918-.221 1.74-.663 2.465a4.556 4.556 0 01-1.853 1.7c-.793.408-1.688.612-2.686.612zm0-2.567c.567 0 1.032-.193 1.394-.578.363-.397.544-.94.544-1.632 0-.68-.181-1.213-.544-1.598-.362-.385-.827-.578-1.394-.578-.566 0-1.031.193-1.394.578-.362.385-.544.918-.544 1.598 0 .691.182 1.235.544 1.632.363.385.828.578 1.394.578zm14.146-2.414c1.054.351 1.581 1.077 1.581 2.176 0 .827-.323 1.479-.969 1.955-.646.465-1.598.697-2.856.697h-5.185V7.786h4.947c1.201 0 2.131.21 2.788.629.669.42 1.003 1.009 1.003 1.768 0 .442-.113.833-.34 1.173-.227.34-.55.612-.969.816zm-4.539-.68h1.768c.748 0 1.122-.278 1.122-.833 0-.533-.374-.799-1.122-.799h-1.768v1.632zm2.006 3.417c.782 0 1.173-.283 1.173-.85s-.38-.85-1.139-.85h-2.04v1.7h2.006zm10.37 2.244c-1.02 0-1.933-.204-2.737-.612a4.651 4.651 0 01-1.887-1.7c-.442-.725-.663-1.547-.663-2.465 0-.918.221-1.734.663-2.448a4.533 4.533 0 011.887-1.683c.804-.408 1.717-.612 2.737-.612 1.042 0 1.943.227 2.703.68a3.68 3.68 0 011.615 1.853l-2.499 1.275c-.42-.827-1.032-1.241-1.836-1.241-.578 0-1.06.193-1.445.578-.374.385-.561.918-.561 1.598 0 .691.187 1.235.561 1.632.385.385.867.578 1.445.578.804 0 1.416-.414 1.836-1.241l2.499 1.275a3.764 3.764 0 01-1.615 1.87c-.76.442-1.661.663-2.703.663zm9.987-3.434h-1.088V17h-3.23V7.786h3.23v3.4h1.156l2.261-3.4h3.417l-3.094 4.42L157.37 17h-3.808l-2.142-3.281zm10.612-6.086c1.53 0 2.697.351 3.502 1.054.804.691 1.207 1.757 1.207 3.196V17h-3.009v-1.19c-.465.895-1.372 1.343-2.72 1.343-.714 0-1.332-.125-1.853-.374-.522-.25-.918-.584-1.19-1.003a2.765 2.765 0 01-.391-1.462c0-.873.334-1.547 1.003-2.023.668-.487 1.7-.731 3.094-.731h1.836c-.057-.975-.709-1.462-1.955-1.462-.442 0-.89.074-1.343.221a3.449 3.449 0 00-1.156.578l-1.088-2.193c.51-.34 1.127-.6 1.853-.782a8.697 8.697 0 012.21-.289zm-.119 7.48c.374 0 .702-.09.986-.272.283-.181.487-.448.612-.799v-.799h-1.394c-.941 0-1.411.312-1.411.935 0 .283.107.51.323.68.215.17.51.255.884.255zm15.441-7.327V17h-2.873v-2.499h-1.462L171.387 17h-3.417l2.04-2.941c-.612-.272-1.083-.64-1.411-1.105-.318-.476-.476-1.043-.476-1.7 0-1.1.408-1.95 1.224-2.55.816-.612 1.938-.918 3.366-.918h4.641zm-4.573 2.55c-.907 0-1.36.346-1.36 1.037 0 .363.107.629.323.799.226.17.566.255 1.02.255h1.717v-2.091h-1.7zm8.07 2.992c.555 0 1.014.176 1.377.527.362.351.544.81.544 1.377 0 .26-.034.521-.102.782-.068.26-.221.652-.459 1.173l-1.071 2.482h-2.023l.799-2.771a1.728 1.728 0 01-.748-.646 2.004 2.004 0 01-.255-1.02c0-.567.181-1.026.544-1.377.362-.351.827-.527 1.394-.527zm18.261-5.542l-3.978 9.588c-.464 1.133-1.031 1.927-1.7 2.38-.668.465-1.484.697-2.448.697-.487 0-.98-.08-1.479-.238-.487-.147-.884-.346-1.19-.595l1.122-2.261c.182.17.397.3.646.391.261.102.522.153.782.153.306 0 .556-.062.748-.187.204-.125.374-.323.51-.595l-3.944-9.333h3.315l2.261 5.627 2.278-5.627h3.077zm9.685 0V17h-3.23v-6.647h-2.329l-.068 1.411c-.045 1.201-.164 2.193-.357 2.975-.192.782-.51 1.394-.952 1.836-.442.43-1.048.646-1.819.646-.396 0-.918-.074-1.564-.221l.136-2.635c.204.023.34.034.408.034.352 0 .618-.113.799-.34.182-.227.306-.527.374-.901.068-.385.114-.895.136-1.53l.136-3.842h8.33zm3.48 9.367a1.902 1.902 0 01-1.377-.544c-.374-.363-.561-.822-.561-1.377 0-.567.181-1.026.544-1.377.374-.351.839-.527 1.394-.527.567 0 1.031.176 1.394.527.363.351.544.81.544 1.377 0 .555-.187 1.014-.561 1.377-.363.363-.822.544-1.377.544zm14.437.085c-1.247 0-2.369-.26-3.366-.782a5.983 5.983 0 01-2.329-2.21c-.567-.94-.85-2.006-.85-3.196 0-1.19.283-2.255.85-3.196a5.861 5.861 0 012.329-2.193c.997-.533 2.119-.799 3.366-.799 1.088 0 2.068.193 2.941.578.872.385 1.598.94 2.176 1.666l-2.142 1.938c-.771-.93-1.706-1.394-2.805-1.394-.646 0-1.224.142-1.734.425-.499.283-.89.686-1.173 1.207-.272.51-.408 1.1-.408 1.768 0 .669.136 1.264.408 1.785.283.51.674.907 1.173 1.19.51.283 1.088.425 1.734.425 1.099 0 2.034-.465 2.805-1.394l2.142 1.938a5.663 5.663 0 01-2.176 1.666c-.873.385-1.853.578-2.941.578zm14.429-6.885h-2.958V17h-3.213v-6.647h-2.975V7.786h9.146v2.567zm7.049-2.72c.838 0 1.598.198 2.278.595a4.13 4.13 0 011.632 1.666c.408.714.612 1.547.612 2.499 0 .952-.204 1.79-.612 2.516a4.277 4.277 0 01-1.632 1.666c-.68.385-1.44.578-2.278.578-1.077 0-1.933-.323-2.567-.969v4.114h-3.23V7.786h3.077v.918c.6-.714 1.507-1.071 2.72-1.071zm-.68 6.953c.566 0 1.031-.193 1.394-.578.362-.397.544-.935.544-1.615 0-.68-.182-1.213-.544-1.598-.363-.397-.828-.595-1.394-.595-.567 0-1.032.198-1.394.595-.363.385-.544.918-.544 1.598s.181 1.218.544 1.615c.362.385.827.578 1.394.578zm16.086-2.176c0 .023-.017.289-.051.799h-6.698c.136.476.396.844.782 1.105.396.25.889.374 1.479.374.442 0 .821-.062 1.139-.187a3.36 3.36 0 00.986-.612l1.7 1.768c-.896.997-2.205 1.496-3.927 1.496-1.077 0-2.023-.204-2.839-.612-.816-.408-1.451-.975-1.904-1.7-.442-.725-.663-1.547-.663-2.465 0-.907.215-1.717.646-2.431a4.612 4.612 0 011.819-1.7c.77-.408 1.637-.612 2.601-.612.918 0 1.751.193 2.499.578a4.207 4.207 0 011.768 1.649c.442.714.663 1.564.663 2.55zm-4.913-2.482c-.499 0-.918.142-1.258.425-.329.283-.539.669-.629 1.156h3.774c-.091-.487-.306-.873-.646-1.156-.329-.283-.743-.425-1.241-.425zM274.247 17v-4.845l-2.363 4.029h-1.377l-2.295-4.097V17h-2.907V7.786h3.4l2.567 4.811 2.822-4.811h3.043l.017 9.214h-2.907zm13.756-9.214V17h-2.873v-2.499h-1.462L282.036 17h-3.417l2.04-2.941c-.612-.272-1.082-.64-1.411-1.105-.317-.476-.476-1.043-.476-1.7 0-1.1.408-1.95 1.224-2.55.816-.612 1.938-.918 3.366-.918h4.641zm-4.573 2.55c-.907 0-1.36.346-1.36 1.037 0 .363.108.629.323.799.227.17.567.255 1.02.255h1.717v-2.091h-1.7zm6.744-2.55h3.213v3.417h3.315V7.786h3.23V17h-3.23v-3.23h-3.315V17h-3.213V7.786zm11.936 0h3.213v3.417h3.315V7.786h3.23V17h-3.23v-3.23h-3.315V17h-3.213V7.786zm15.694-.153c1.53 0 2.697.351 3.502 1.054.805.691 1.207 1.757 1.207 3.196V17h-3.009v-1.19c-.465.895-1.371 1.343-2.72 1.343-.714 0-1.332-.125-1.853-.374-.521-.25-.918-.584-1.19-1.003a2.765 2.765 0 01-.391-1.462c0-.873.334-1.547 1.003-2.023.669-.487 1.7-.731 3.094-.731h1.836c-.057-.975-.708-1.462-1.955-1.462-.442 0-.89.074-1.343.221a3.458 3.458 0 00-1.156.578l-1.088-2.193c.51-.34 1.128-.6 1.853-.782a8.703 8.703 0 012.21-.289zm-.119 7.48c.374 0 .703-.09.986-.272.283-.181.487-.448.612-.799v-.799h-1.394c-.941 0-1.411.312-1.411.935 0 .283.108.51.323.68.215.17.51.255.884.255zm15.441-7.327V17h-2.873v-2.499h-1.462L327.159 17h-3.417l2.04-2.941c-.612-.272-1.082-.64-1.411-1.105-.317-.476-.476-1.043-.476-1.7 0-1.1.408-1.95 1.224-2.55.816-.612 1.938-.918 3.366-.918h4.641zm-4.573 2.55c-.907 0-1.36.346-1.36 1.037 0 .363.108.629.323.799.227.17.567.255 1.02.255h1.717v-2.091h-1.7zm8.07 2.992c.555 0 1.014.176 1.377.527.363.351.544.81.544 1.377 0 .26-.034.521-.102.782-.068.26-.221.652-.459 1.173l-1.071 2.482h-2.023l.799-2.771a1.733 1.733 0 01-.748-.646 2.004 2.004 0 01-.255-1.02c0-.567.181-1.026.544-1.377.363-.351.827-.527 1.394-.527zm19.333 1.088v4.488h-2.992V17h-5.797v1.904h-3.009v-4.488h.34c.555-.011.94-.312 1.156-.901.215-.6.345-1.44.391-2.516l.119-3.213h8.517v6.63h1.275zm-7.004-3.179c-.034.827-.097 1.49-.187 1.989-.091.499-.261.895-.51 1.19h3.196v-4.063h-2.465l-.034.884zm9.701 5.916a1.902 1.902 0 01-1.377-.544c-.374-.363-.561-.822-.561-1.377 0-.567.181-1.026.544-1.377.374-.351.839-.527 1.394-.527.567 0 1.031.176 1.394.527.363.351.544.81.544 1.377 0 .555-.187 1.014-.561 1.377-.363.363-.822.544-1.377.544zm17.14-2.822V17h-9.265v-2.108l4.454-4.165c.43-.408.719-.754.867-1.037.147-.295.221-.59.221-.884 0-.385-.131-.686-.391-.901-.261-.215-.641-.323-1.139-.323-.442 0-.85.102-1.224.306a2.39 2.39 0 00-.901.85l-2.499-1.394c.464-.77 1.116-1.377 1.955-1.819.838-.442 1.83-.663 2.975-.663.906 0 1.705.147 2.397.442.702.295 1.246.72 1.632 1.275.396.544.595 1.179.595 1.904 0 .646-.142 1.258-.425 1.836-.272.567-.805 1.213-1.598 1.938l-2.244 2.074h4.59zm6.216 2.907c-1.02 0-1.927-.244-2.72-.731-.794-.487-1.417-1.196-1.87-2.125-.442-.94-.663-2.051-.663-3.332 0-1.28.221-2.386.663-3.315.453-.94 1.076-1.655 1.87-2.142.793-.487 1.7-.731 2.72-.731 1.008 0 1.909.244 2.703.731.793.487 1.411 1.201 1.853 2.142.453.93.68 2.034.68 3.315 0 1.28-.227 2.391-.68 3.332-.442.93-1.06 1.638-1.853 2.125-.794.487-1.695.731-2.703.731zm0-2.754c.566 0 1.014-.272 1.343-.816.34-.555.51-1.428.51-2.618s-.17-2.057-.51-2.601c-.329-.555-.777-.833-1.343-.833-.578 0-1.037.278-1.377.833-.329.544-.493 1.411-.493 2.601s.164 2.063.493 2.618c.34.544.799.816 1.377.816zM42.213 41.298c-.703-1.02-1.247-2.21-1.632-3.57-.374-1.371-.561-2.833-.561-4.386s.187-3.009.561-4.369c.385-1.371.93-2.567 1.632-3.587h3.094c-.737 1.303-1.275 2.601-1.615 3.893-.34 1.28-.51 2.635-.51 4.063s.17 2.788.51 4.08c.34 1.28.878 2.573 1.615 3.876h-3.094zm13.007-9.52c.703.227 1.236.578 1.598 1.054.374.476.561 1.065.561 1.768 0 1.054-.413 1.887-1.24 2.499-.817.6-1.978.901-3.486.901H46.55V26.1h5.78c1.428 0 2.533.272 3.315.816.794.533 1.19 1.292 1.19 2.278 0 .578-.141 1.088-.425 1.53-.272.442-.668.793-1.19 1.054zm-5.355-.918h2.142c.952 0 1.428-.391 1.428-1.173s-.476-1.173-1.428-1.173h-2.142v2.346zm2.652 4.726c.975 0 1.462-.414 1.462-1.241 0-.805-.487-1.207-1.462-1.207h-2.652v2.448h2.652zm17.394-.17v4.488h-2.992V38h-5.797v1.904h-3.01v-4.488h.34c.556-.011.941-.312 1.157-.901.215-.6.345-1.44.39-2.516l.12-3.213h8.517v6.63h1.275zm-7.004-3.179c-.034.827-.097 1.49-.187 1.989-.09.499-.26.895-.51 1.19h3.196v-4.063H62.94l-.034.884zm12.93 5.916c-.985 0-1.875-.204-2.668-.612a4.68 4.68 0 01-1.87-1.7c-.442-.725-.663-1.547-.663-2.465 0-.907.22-1.723.663-2.448a4.587 4.587 0 011.853-1.683c.793-.408 1.689-.612 2.686-.612.997 0 1.893.204 2.686.612a4.445 4.445 0 011.853 1.683c.442.714.663 1.53.663 2.448 0 .918-.221 1.74-.663 2.465a4.56 4.56 0 01-1.853 1.7c-.793.408-1.689.612-2.686.612zm0-2.567c.568 0 1.032-.193 1.395-.578.363-.397.544-.94.544-1.632 0-.68-.181-1.213-.544-1.598-.363-.385-.827-.578-1.394-.578s-1.031.193-1.394.578c-.363.385-.544.918-.544 1.598 0 .691.181 1.235.544 1.632.363.385.827.578 1.394.578zm17.449-.17v4.488h-2.992V38h-5.797v1.904h-3.01v-4.488h.34c.556-.011.941-.312 1.157-.901.215-.6.345-1.44.39-2.516l.12-3.213h8.517v6.63h1.275zm-7.004-3.179c-.034.827-.097 1.49-.187 1.989-.09.499-.26.895-.51 1.19h3.196v-4.063h-2.465l-.034.884zm20.768.935c1.054.351 1.581 1.077 1.581 2.176 0 .827-.323 1.479-.969 1.955-.646.465-1.598.697-2.856.697h-5.185v-9.214h4.947c1.202 0 2.131.21 2.788.629.669.42 1.003 1.009 1.003 1.768 0 .442-.113.833-.34 1.173-.226.34-.549.612-.969.816zm-4.539-.68h1.768c.748 0 1.122-.278 1.122-.833 0-.533-.374-.799-1.122-.799h-1.768v1.632zm2.006 3.417c.782 0 1.173-.283 1.173-.85s-.379-.85-1.139-.85h-2.04v1.7h2.006zm14.45-7.276c1.53 0 2.697.351 3.502 1.054.805.691 1.207 1.757 1.207 3.196V38h-3.009v-1.19c-.465.895-1.371 1.343-2.72 1.343-.714 0-1.332-.125-1.853-.374-.521-.25-.918-.584-1.19-1.003a2.765 2.765 0 01-.391-1.462c0-.873.334-1.547 1.003-2.023.669-.487 1.7-.731 3.094-.731h1.836c-.057-.975-.708-1.462-1.955-1.462-.442 0-.89.074-1.343.221a3.458 3.458 0 00-1.156.578l-1.088-2.193c.51-.34 1.128-.6 1.853-.782a8.701 8.701 0 012.21-.289zm-.119 7.48c.374 0 .703-.09.986-.272.283-.181.487-.448.612-.799v-.799h-1.394c-.941 0-1.411.312-1.411.935 0 .283.108.51.323.68.215.17.51.255.884.255zm12.568-7.48c.839 0 1.598.198 2.278.595.692.385 1.236.94 1.632 1.666.408.714.612 1.547.612 2.499 0 .952-.204 1.79-.612 2.516a4.263 4.263 0 01-1.632 1.666c-.68.385-1.439.578-2.278.578-1.076 0-1.932-.323-2.567-.969v4.114h-3.23V28.786h3.077v.918c.601-.714 1.508-1.071 2.72-1.071zm-.68 6.953c.567 0 1.032-.193 1.394-.578.363-.397.544-.935.544-1.615 0-.68-.181-1.213-.544-1.598-.362-.397-.827-.595-1.394-.595-.566 0-1.031.198-1.394.595-.362.385-.544.918-.544 1.598s.182 1.218.544 1.615c.363.385.828.578 1.394.578zm11.071-.867h-1.088V38h-3.23v-9.214h3.23v3.4h1.156l2.261-3.4h3.417l-3.094 4.42L147.757 38h-3.808l-2.142-3.281zm16.333-5.933l-3.978 9.588c-.465 1.133-1.032 1.927-1.7 2.38-.669.465-1.485.697-2.448.697a4.85 4.85 0 01-1.479-.238c-.488-.147-.884-.346-1.19-.595l1.122-2.261c.181.17.396.3.646.391.26.102.521.153.782.153.306 0 .555-.062.748-.187.204-.125.374-.323.51-.595l-3.944-9.333h3.315l2.261 5.627 2.278-5.627h3.077zm1.842 5.542c.556 0 1.015.176 1.377.527.363.351.544.81.544 1.377 0 .26-.034.521-.102.782-.068.26-.221.652-.459 1.173l-1.071 2.482h-2.023l.799-2.771a1.739 1.739 0 01-.748-.646 2.004 2.004 0 01-.255-1.02c0-.567.182-1.026.544-1.377.363-.351.828-.527 1.394-.527zm15.865-1.156c1.054.351 1.581 1.077 1.581 2.176 0 .827-.323 1.479-.969 1.955-.646.465-1.598.697-2.856.697h-5.185v-9.214h4.947c1.201 0 2.131.21 2.788.629.669.42 1.003 1.009 1.003 1.768 0 .442-.113.833-.34 1.173-.227.34-.55.612-.969.816zm-4.539-.68h1.768c.748 0 1.122-.278 1.122-.833 0-.533-.374-.799-1.122-.799h-1.768v1.632zm2.006 3.417c.782 0 1.173-.283 1.173-.85s-.38-.85-1.139-.85h-2.04v1.7h2.006zm11.016-4.267c1.212.011 2.125.283 2.737.816.612.533.918 1.292.918 2.278 0 1.031-.357 1.836-1.071 2.414-.703.578-1.7.861-2.992.85h-4.862v-9.214h3.213v2.856h2.057zm4.437-2.856h3.213V38h-3.213v-9.214zm-5.168 7.004c.816 0 1.224-.368 1.224-1.105 0-.363-.102-.629-.306-.799-.204-.17-.51-.26-.918-.272h-1.326v2.159l1.326.017zm17.997-2.618c1.054.351 1.581 1.077 1.581 2.176 0 .827-.323 1.479-.969 1.955-.646.465-1.598.697-2.856.697h-5.185v-9.214h4.947c1.201 0 2.131.21 2.788.629.669.42 1.003 1.009 1.003 1.768 0 .442-.113.833-.34 1.173-.227.34-.55.612-.969.816zm-4.539-.68h1.768c.748 0 1.122-.278 1.122-.833 0-.533-.374-.799-1.122-.799h-1.768v1.632zm2.006 3.417c.782 0 1.173-.283 1.173-.85s-.38-.85-1.139-.85h-2.04v1.7h2.006zm15.079-2.499c0 .023-.017.289-.051.799h-6.698c.136.476.396.844.782 1.105.396.25.889.374 1.479.374.442 0 .821-.062 1.139-.187a3.36 3.36 0 00.986-.612l1.7 1.768c-.896.997-2.205 1.496-3.927 1.496-1.077 0-2.023-.204-2.839-.612-.816-.408-1.451-.975-1.904-1.7-.442-.725-.663-1.547-.663-2.465 0-.907.215-1.717.646-2.431a4.612 4.612 0 011.819-1.7c.77-.408 1.637-.612 2.601-.612.918 0 1.751.193 2.499.578a4.207 4.207 0 011.768 1.649c.442.714.663 1.564.663 2.55zm-4.913-2.482c-.499 0-.918.142-1.258.425-.329.283-.539.669-.629 1.156h3.774c-.091-.487-.306-.873-.646-1.156-.329-.283-.743-.425-1.241-.425zm11.244 7.225c-1.02 0-1.933-.204-2.737-.612a4.651 4.651 0 01-1.887-1.7c-.442-.725-.663-1.547-.663-2.465 0-.918.221-1.734.663-2.448a4.533 4.533 0 011.887-1.683c.804-.408 1.717-.612 2.737-.612 1.042 0 1.943.227 2.703.68a3.68 3.68 0 011.615 1.853l-2.499 1.275c-.42-.827-1.032-1.241-1.836-1.241-.578 0-1.06.193-1.445.578-.374.385-.561.918-.561 1.598 0 .691.187 1.235.561 1.632.385.385.867.578 1.445.578.804 0 1.416-.414 1.836-1.241l2.499 1.275a3.764 3.764 0 01-1.615 1.87c-.76.442-1.661.663-2.703.663zm9.987-3.434h-1.088V38h-3.23v-9.214h3.23v3.4h1.156l2.261-3.4h3.417l-3.094 4.42L236.41 38h-3.808l-2.142-3.281zm10.612-6.086c1.53 0 2.697.351 3.502 1.054.804.691 1.207 1.757 1.207 3.196V38h-3.009v-1.19c-.465.895-1.372 1.343-2.72 1.343-.714 0-1.332-.125-1.853-.374-.522-.25-.918-.584-1.19-1.003a2.765 2.765 0 01-.391-1.462c0-.873.334-1.547 1.003-2.023.668-.487 1.7-.731 3.094-.731h1.836c-.057-.975-.709-1.462-1.955-1.462-.442 0-.89.074-1.343.221a3.449 3.449 0 00-1.156.578l-1.088-2.193c.51-.34 1.127-.6 1.853-.782a8.696 8.696 0 012.21-.289zm-.119 7.48c.374 0 .702-.09.986-.272.283-.181.487-.448.612-.799v-.799h-1.394c-.941 0-1.411.312-1.411.935 0 .283.107.51.323.68.215.17.51.255.884.255zm13.962-7.956a1.6 1.6 0 01.731.663c.181.283.272.618.272 1.003 0 .567-.181 1.026-.544 1.377-.363.351-.827.527-1.394.527s-1.031-.176-1.394-.527c-.363-.351-.544-.81-.544-1.377 0-.26.034-.521.102-.782.068-.26.221-.646.459-1.156l1.088-2.499h2.023l-.799 2.771zm4.454 0a1.6 1.6 0 01.731.663c.181.283.272.618.272 1.003 0 .567-.181 1.026-.544 1.377-.363.351-.827.527-1.394.527s-1.031-.176-1.394-.527c-.363-.351-.544-.81-.544-1.377 0-.26.034-.521.102-.782.068-.26.221-.646.459-1.156l1.088-2.499h2.023l-.799 2.771zm14.59 7.174v5.066h-3.077V38h-7.616v2.397h-3.094v-5.066h.425c.703-.011 1.196-.493 1.479-1.445.295-.952.476-2.323.544-4.114l.136-3.672h9.588v9.231h1.615zm-8.398-5.27c-.045 1.27-.147 2.346-.306 3.23-.158.884-.402 1.564-.731 2.04h4.505v-6.562h-3.417l-.051 1.292zm14.31 8.092c-.986 0-1.876-.204-2.669-.612a4.68 4.68 0 01-1.87-1.7c-.442-.725-.663-1.547-.663-2.465 0-.907.221-1.723.663-2.448a4.584 4.584 0 011.853-1.683c.793-.408 1.689-.612 2.686-.612.997 0 1.893.204 2.686.612a4.448 4.448 0 011.853 1.683c.442.714.663 1.53.663 2.448 0 .918-.221 1.74-.663 2.465a4.562 4.562 0 01-1.853 1.7c-.793.408-1.689.612-2.686.612zm0-2.567c.567 0 1.031-.193 1.394-.578.363-.397.544-.94.544-1.632 0-.68-.181-1.213-.544-1.598-.363-.385-.827-.578-1.394-.578s-1.031.193-1.394.578c-.363.385-.544.918-.544 1.598 0 .691.181 1.235.544 1.632.363.385.827.578 1.394.578zm11.035-.867h-1.088V38h-3.23v-9.214h3.23v3.4h1.156l2.261-3.4h3.417l-3.094 4.42L296.856 38h-3.808l-2.142-3.281zm15.216-3.366h-2.958V38h-3.213v-6.647h-2.975v-2.567h9.146v2.567zm5.425 6.8c-.986 0-1.876-.204-2.669-.612a4.68 4.68 0 01-1.87-1.7c-.442-.725-.663-1.547-.663-2.465 0-.907.221-1.723.663-2.448a4.584 4.584 0 011.853-1.683c.793-.408 1.689-.612 2.686-.612.997 0 1.893.204 2.686.612a4.448 4.448 0 011.853 1.683c.442.714.663 1.53.663 2.448 0 .918-.221 1.74-.663 2.465a4.562 4.562 0 01-1.853 1.7c-.793.408-1.689.612-2.686.612zm0-2.567c.567 0 1.031-.193 1.394-.578.363-.397.544-.94.544-1.632 0-.68-.181-1.213-.544-1.598-.363-.385-.827-.578-1.394-.578s-1.031.193-1.394.578c-.363.385-.544.918-.544 1.598 0 .691.181 1.235.544 1.632.363.385.827.578 1.394.578zm12.514-6.953c.838 0 1.598.198 2.278.595a4.13 4.13 0 011.632 1.666c.408.714.612 1.547.612 2.499 0 .952-.204 1.79-.612 2.516a4.277 4.277 0 01-1.632 1.666c-.68.385-1.44.578-2.278.578-1.077 0-1.933-.323-2.567-.969v4.114h-3.23V28.786h3.077v.918c.6-.714 1.507-1.071 2.72-1.071zm-.68 6.953c.566 0 1.031-.193 1.394-.578.362-.397.544-.935.544-1.615 0-.68-.182-1.213-.544-1.598-.363-.397-.828-.595-1.394-.595-.567 0-1.032.198-1.394.595-.363.385-.544.918-.544 1.598s.181 1.218.544 1.615c.362.385.827.578 1.394.578zm11.649-6.8h3.23V38h-3.23v-9.214zm1.615-1.02c-.589 0-1.065-.164-1.428-.493a1.584 1.584 0 01-.544-1.224c0-.487.181-.895.544-1.224.363-.329.839-.493 1.428-.493s1.065.159 1.428.476c.363.306.544.703.544 1.19 0 .51-.181.935-.544 1.275-.363.329-.839.493-1.428.493zm3.952-1.666h9.945v2.601h-6.63v1.921h3.077c1.44 0 2.545.306 3.315.918.771.612 1.156 1.49 1.156 2.635 0 1.201-.43 2.142-1.292 2.822-.861.669-2.068 1.003-3.621 1.003h-5.95V26.1zm5.729 9.486c.567 0 .998-.113 1.292-.34.295-.227.442-.55.442-.969 0-.839-.578-1.258-1.734-1.258h-2.414v2.567h2.414zm11.224 2.567c-.986 0-1.876-.204-2.669-.612a4.68 4.68 0 01-1.87-1.7c-.442-.725-.663-1.547-.663-2.465 0-.907.221-1.723.663-2.448a4.584 4.584 0 011.853-1.683c.793-.408 1.689-.612 2.686-.612.997 0 1.893.204 2.686.612a4.448 4.448 0 011.853 1.683c.442.714.663 1.53.663 2.448 0 .918-.221 1.74-.663 2.465a4.562 4.562 0 01-1.853 1.7c-.793.408-1.689.612-2.686.612zm0-2.567c.567 0 1.031-.193 1.394-.578.363-.397.544-.94.544-1.632 0-.68-.181-1.213-.544-1.598-.363-.385-.827-.578-1.394-.578s-1.031.193-1.394.578c-.363.385-.544.918-.544 1.598 0 .691.181 1.235.544 1.632.363.385.827.578 1.394.578zm15.935-6.8V38h-3.23v-6.647h-2.329l-.068 1.411c-.046 1.201-.165 2.193-.357 2.975-.193.782-.51 1.394-.952 1.836-.442.43-1.049.646-1.819.646-.397 0-.918-.074-1.564-.221l.136-2.635c.204.023.34.034.408.034.351 0 .617-.113.799-.34.181-.227.306-.527.374-.901a11.6 11.6 0 00.136-1.53l.136-3.842h8.33zm2.17 0h3.213v4.828l3.859-4.828h2.975V38h-3.23v-4.845L378.647 38h-2.992v-9.214zm20.447 2.567h-2.958V38h-3.213v-6.647h-2.975v-2.567h9.146v2.567zm2.777-6.12c.555 0 1.014.176 1.377.527.363.351.544.81.544 1.377 0 .26-.034.521-.102.782-.068.26-.215.652-.442 1.173l-1.088 2.482h-2.023l.799-2.771a1.733 1.733 0 01-.748-.646 2.004 2.004 0 01-.255-1.02c0-.567.181-1.026.544-1.377.363-.351.827-.527 1.394-.527zm4.454 0c.555 0 1.014.176 1.377.527.363.351.544.81.544 1.377 0 .26-.034.521-.102.782-.068.26-.215.652-.442 1.173l-1.088 2.482h-2.023l.799-2.771a1.733 1.733 0 01-.748-.646 2.004 2.004 0 01-.255-1.02c0-.567.181-1.026.544-1.377.363-.351.827-.527 1.394-.527z" fill="#313131"/><defs><linearGradient id="paint0_linear" x1="15" y1="8" x2="15" y2="38" gradientUnits="userSpaceOnUse"><stop stop-color="#E76711"/><stop offset="1" stop-color="#7D1366"/></linearGradient></defs></svg>