<svg width="35" height="35" fill="none" xmlns="http://www.w3.org/2000/svg"><path d="M21.355 17.5L34.44 4.413c.36-.36.558-.84.559-1.353 0-.513-.199-.994-.56-1.354L33.295.56A1.898 1.898 0 0031.94 0c-.512 0-.993.199-1.353.56L17.5 13.645 4.414.56A1.897 1.897 0 003.06 0c-.512 0-.993.2-1.353.56L.56 1.706a1.916 1.916 0 000 2.707L13.646 17.5.56 30.586c-.36.36-.559.841-.559 1.354 0 .512.199.993.559 1.353l1.147 1.147c.36.36.841.559 1.353.559.513 0 .994-.199 1.354-.56L17.5 21.355 30.586 34.44a1.9 1.9 0 001.354.559 1.9 1.9 0 001.354-.56l1.147-1.146c.36-.36.558-.84.558-1.353s-.199-.994-.558-1.354L21.355 17.5z" fill="#313131"/></svg>