<svg width="30" height="30" fill="none" xmlns="http://www.w3.org/2000/svg"><path d="M15 30c8.284 0 15-6.716 15-15 0-8.284-6.716-15-15-15C6.716 0 0 6.716 0 15c0 8.284 6.716 15 15 15z" fill="#32BA7C"/><path d="M11.167 21.767l7.713 7.713C25.268 27.776 30 21.956 30 15v-.426l-6.057-5.583-12.776 12.776z" fill="#0AA06E"/><path d="M15.379 18.36c.662.662.662 1.798 0 2.46l-1.373 1.372c-.662.663-1.798.663-2.46 0l-6.01-6.056c-.662-.663-.662-1.798 0-2.46l1.373-1.373c.662-.663 1.798-.663 2.46 0l6.01 6.057z" fill="#fff"/><path d="M20.631 7.902c.663-.662 1.798-.662 2.46 0l1.373 1.372c.662.663.662 1.799 0 2.461l-10.41 10.363c-.663.662-1.798.662-2.46 0l-1.373-1.372c-.662-.663-.662-1.799 0-2.461l10.41-10.363z" fill="#fff"/></svg>