<svg width="20" height="20" fill="none" xmlns="http://www.w3.org/2000/svg"><g clip-path="url(#clip0)"><path d="M10 19.75c5.523 0 10-4.42 10-9.875C20 4.421 15.523 0 10 0S0 4.421 0 9.875s4.477 9.875 10 9.875z" fill="#039BE5"/><path d="M4.576 9.661l9.641-3.67c.448-.16.839.107.694.775l-1.641 7.637c-.122.541-.447.673-.903.418l-2.5-1.82L8.66 14.15c-.133.131-.246.242-.504.242l.177-2.512 4.633-4.134c.202-.175-.045-.274-.31-.1l-5.726 3.56-2.468-.76c-.536-.167-.548-.529.113-.784z" fill="#fff"/></g><defs><clipPath id="clip0"><path fill="#fff" d="M0 0h20v19.75H0z"/></clipPath></defs></svg>