<svg width="20" height="20" fill="none" xmlns="http://www.w3.org/2000/svg"><g clip-path="url(#clip0)"><path d="M10.002 0h-.005C4.485 0 0 4.429 0 9.875a9.72 9.72 0 001.904 5.788L.658 19.332 4.5 18.119a10.003 10.003 0 005.501 1.631c5.514 0 9.998-4.43 9.998-9.875S15.516 0 10.002 0z" fill="#4CAF50"/><path d="M15.821 13.945c-.241.673-1.198 1.23-1.962 1.394-.523.11-1.205.197-3.503-.744-2.938-1.202-4.831-4.15-4.978-4.342-.142-.191-1.188-1.562-1.188-2.979s.729-2.107 1.022-2.403c.242-.243.64-.354 1.023-.354.124 0 .235.006.335.01.294.013.441.03.635.488.241.574.829 1.991.899 2.137.071.146.142.343.042.535-.094.197-.176.285-.324.453-.147.167-.287.296-.434.476-.135.157-.288.325-.118.615.17.284.758 1.23 1.623 1.99 1.116.982 2.02 1.296 2.345 1.43.24.098.528.074.705-.11.223-.239.5-.634.78-1.023.2-.279.453-.313.718-.215.27.093 1.699.79 1.993.935.293.145.487.215.559.337.07.122.07.696-.172 1.37z" fill="#FAFAFA"/></g><defs><clipPath id="clip0"><path fill="#fff" d="M0 0h20v19.75H0z"/></clipPath></defs></svg>