<svg width="406" height="42" viewBox="0 0 406 42" fill="none" xmlns="http://www.w3.org/2000/svg">
<path d="M15 8C9.00909 8 4.13514 12.8739 4.13514 18.8648C4.13514 26.2997 13.8581 37.2144 14.2721 37.6755C14.6609 38.1085 15.3398 38.1078 15.7279 37.6755C16.1419 37.2144 25.8649 26.2997 25.8649 18.8648C25.8647 12.8739 20.9909 8 15 8ZM15 24.3312C11.9858 24.3312 9.53367 21.879 9.53367 18.8648C9.53367 15.8506 11.9859 13.3985 15 13.3985C18.0141 13.3985 20.4663 15.8507 20.4663 18.8649C20.4663 21.879 18.0141 24.3312 15 24.3312Z" fill="url(#paint0_linear)"/>
<path d="M51.002 17L50.985 10.693L47.925 15.827H46.429L43.369 10.829V17H40.275V5.1H43.046L47.228 11.968L51.308 5.1H54.079L54.113 17H51.002ZM57.7661 17.153C57.2221 17.153 56.7631 16.9717 56.3891 16.609C56.0151 16.2463 55.8281 15.7873 55.8281 15.232C55.8281 14.6653 56.0095 14.2063 56.3721 13.855C56.7461 13.5037 57.2108 13.328 57.7661 13.328C58.3328 13.328 58.7975 13.5037 59.1601 13.855C59.5228 14.2063 59.7041 14.6653 59.7041 15.232C59.7041 15.7873 59.5171 16.2463 59.1431 16.609C58.7805 16.9717 58.3215 17.153 57.7661 17.153ZM77.1329 17L77.1159 10.693L74.0559 15.827H72.5599L69.4999 10.829V17H66.4059V5.1H69.1769L73.3589 11.968L77.4389 5.1H80.2099L80.2439 17H77.1329ZM86.345 7.633C87.875 7.633 89.0423 7.98433 89.847 8.687C90.6517 9.37833 91.054 10.4437 91.054 11.883V17H88.045V15.81C87.5803 16.7053 86.6737 17.153 85.325 17.153C84.611 17.153 83.9933 17.0283 83.472 16.779C82.9507 16.5297 82.554 16.1953 82.282 15.776C82.0213 15.3453 81.891 14.858 81.891 14.314C81.891 13.4413 82.2253 12.767 82.894 12.291C83.5627 11.8037 84.594 11.56 85.988 11.56H87.824C87.7673 10.5853 87.1157 10.098 85.869 10.098C85.427 10.098 84.9793 10.1717 84.526 10.319C84.0727 10.455 83.6873 10.6477 83.37 10.897L82.282 8.704C82.792 8.364 83.4097 8.10333 84.135 7.922C84.8717 7.72933 85.6083 7.633 86.345 7.633ZM86.226 15.113C86.6 15.113 86.9287 15.0223 87.212 14.841C87.4953 14.6597 87.6993 14.3933 87.824 14.042V13.243H86.43C85.4893 13.243 85.019 13.5547 85.019 14.178C85.019 14.4613 85.1267 14.688 85.342 14.858C85.5573 15.028 85.852 15.113 86.226 15.113ZM101.667 7.786V17H98.7942V14.501H97.3322L95.7002 17H92.2832L94.3232 14.059C93.7112 13.787 93.2408 13.4187 92.9122 12.954C92.5948 12.478 92.4362 11.9113 92.4362 11.254C92.4362 10.1547 92.8442 9.30467 93.6602 8.704C94.4762 8.092 95.5982 7.786 97.0262 7.786H101.667ZM97.0942 10.336C96.1875 10.336 95.7342 10.6817 95.7342 11.373C95.7342 11.7357 95.8418 12.002 96.0572 12.172C96.2838 12.342 96.6238 12.427 97.0772 12.427H98.7942V10.336H97.0942ZM108.156 13.719H107.068V17H103.838V7.786H107.068V11.186H108.224L110.485 7.786H113.902L110.808 12.206L114.106 17H110.298L108.156 13.719ZM119.45 17.153C118.464 17.153 117.575 16.949 116.781 16.541C115.988 16.133 115.365 15.5663 114.911 14.841C114.469 14.1157 114.248 13.294 114.248 12.376C114.248 11.4693 114.469 10.6533 114.911 9.928C115.365 9.20267 115.982 8.64167 116.764 8.245C117.558 7.837 118.453 7.633 119.45 7.633C120.448 7.633 121.343 7.837 122.136 8.245C122.93 8.64167 123.547 9.20267 123.989 9.928C124.431 10.642 124.652 11.458 124.652 12.376C124.652 13.294 124.431 14.1157 123.989 14.841C123.547 15.5663 122.93 16.133 122.136 16.541C121.343 16.949 120.448 17.153 119.45 17.153ZM119.45 14.586C120.017 14.586 120.482 14.3933 120.844 14.008C121.207 13.6113 121.388 13.0673 121.388 12.376C121.388 11.696 121.207 11.1633 120.844 10.778C120.482 10.3927 120.017 10.2 119.45 10.2C118.884 10.2 118.419 10.3927 118.056 10.778C117.694 11.1633 117.512 11.696 117.512 12.376C117.512 13.0673 117.694 13.6113 118.056 14.008C118.419 14.3933 118.884 14.586 119.45 14.586ZM133.596 12.172C134.65 12.5233 135.177 13.2487 135.177 14.348C135.177 15.1753 134.854 15.827 134.208 16.303C133.562 16.7677 132.61 17 131.352 17H126.167V7.786H131.114C132.315 7.786 133.245 7.99567 133.902 8.415C134.571 8.83433 134.905 9.42367 134.905 10.183C134.905 10.625 134.792 11.016 134.565 11.356C134.338 11.696 134.015 11.968 133.596 12.172ZM129.057 11.492H130.825C131.573 11.492 131.947 11.2143 131.947 10.659C131.947 10.1263 131.573 9.86 130.825 9.86H129.057V11.492ZM131.063 14.909C131.845 14.909 132.236 14.6257 132.236 14.059C132.236 13.4923 131.856 13.209 131.097 13.209H129.057V14.909H131.063ZM141.433 17.153C140.413 17.153 139.5 16.949 138.696 16.541C137.891 16.133 137.262 15.5663 136.809 14.841C136.367 14.1157 136.146 13.294 136.146 12.376C136.146 11.458 136.367 10.642 136.809 9.928C137.262 9.20267 137.891 8.64167 138.696 8.245C139.5 7.837 140.413 7.633 141.433 7.633C142.475 7.633 143.376 7.85967 144.136 8.313C144.895 8.755 145.433 9.37267 145.751 10.166L143.252 11.441C142.832 10.6137 142.22 10.2 141.416 10.2C140.838 10.2 140.356 10.3927 139.971 10.778C139.597 11.1633 139.41 11.696 139.41 12.376C139.41 13.0673 139.597 13.6113 139.971 14.008C140.356 14.3933 140.838 14.586 141.416 14.586C142.22 14.586 142.832 14.1723 143.252 13.345L145.751 14.62C145.433 15.4133 144.895 16.0367 144.136 16.49C143.376 16.932 142.475 17.153 141.433 17.153ZM151.42 13.719H150.332V17H147.102V7.786H150.332V11.186H151.488L153.749 7.786H157.166L154.072 12.206L157.37 17H153.562L151.42 13.719ZM162.032 7.633C163.562 7.633 164.729 7.98433 165.534 8.687C166.338 9.37833 166.741 10.4437 166.741 11.883V17H163.732V15.81C163.267 16.7053 162.36 17.153 161.012 17.153C160.298 17.153 159.68 17.0283 159.159 16.779C158.637 16.5297 158.241 16.1953 157.969 15.776C157.708 15.3453 157.578 14.858 157.578 14.314C157.578 13.4413 157.912 12.767 158.581 12.291C159.249 11.8037 160.281 11.56 161.675 11.56H163.511C163.454 10.5853 162.802 10.098 161.556 10.098C161.114 10.098 160.666 10.1717 160.213 10.319C159.759 10.455 159.374 10.6477 159.057 10.897L157.969 8.704C158.479 8.364 159.096 8.10333 159.822 7.922C160.558 7.72933 161.295 7.633 162.032 7.633ZM161.913 15.113C162.287 15.113 162.615 15.0223 162.899 14.841C163.182 14.6597 163.386 14.3933 163.511 14.042V13.243H162.117C161.176 13.243 160.706 13.5547 160.706 14.178C160.706 14.4613 160.813 14.688 161.029 14.858C161.244 15.028 161.539 15.113 161.913 15.113ZM177.354 7.786V17H174.481V14.501H173.019L171.387 17H167.97L170.01 14.059C169.398 13.787 168.927 13.4187 168.599 12.954C168.281 12.478 168.123 11.9113 168.123 11.254C168.123 10.1547 168.531 9.30467 169.347 8.704C170.163 8.092 171.285 7.786 172.713 7.786H177.354ZM172.781 10.336C171.874 10.336 171.421 10.6817 171.421 11.373C171.421 11.7357 171.528 12.002 171.744 12.172C171.97 12.342 172.31 12.427 172.764 12.427H174.481V10.336H172.781ZM180.851 13.328C181.406 13.328 181.865 13.5037 182.228 13.855C182.59 14.2063 182.772 14.6653 182.772 15.232C182.772 15.4927 182.738 15.7533 182.67 16.014C182.602 16.2747 182.449 16.6657 182.211 17.187L181.14 19.669H179.117L179.916 16.898C179.598 16.7507 179.349 16.5353 179.168 16.252C178.998 15.9573 178.913 15.6173 178.913 15.232C178.913 14.6653 179.094 14.2063 179.457 13.855C179.819 13.5037 180.284 13.328 180.851 13.328ZM199.112 7.786L195.134 17.374C194.67 18.5073 194.103 19.3007 193.434 19.754C192.766 20.2187 191.95 20.451 190.986 20.451C190.499 20.451 190.006 20.3717 189.507 20.213C189.02 20.0657 188.623 19.8673 188.317 19.618L189.439 17.357C189.621 17.527 189.836 17.6573 190.085 17.748C190.346 17.85 190.607 17.901 190.867 17.901C191.173 17.901 191.423 17.8387 191.615 17.714C191.819 17.5893 191.989 17.391 192.125 17.119L188.181 7.786H191.496L193.757 13.413L196.035 7.786H199.112ZM208.797 7.786V17H205.567V10.353H203.238L203.17 11.764C203.125 12.9653 203.006 13.957 202.813 14.739C202.621 15.521 202.303 16.133 201.861 16.575C201.419 17.0057 200.813 17.221 200.042 17.221C199.646 17.221 199.124 17.1473 198.478 17L198.614 14.365C198.818 14.3877 198.954 14.399 199.022 14.399C199.374 14.399 199.64 14.2857 199.821 14.059C200.003 13.8323 200.127 13.532 200.195 13.158C200.263 12.7727 200.309 12.2627 200.331 11.628L200.467 7.786H208.797ZM212.277 17.153C211.733 17.153 211.274 16.9717 210.9 16.609C210.526 16.2463 210.339 15.7873 210.339 15.232C210.339 14.6653 210.52 14.2063 210.883 13.855C211.257 13.5037 211.722 13.328 212.277 13.328C212.844 13.328 213.308 13.5037 213.671 13.855C214.034 14.2063 214.215 14.6653 214.215 15.232C214.215 15.7873 214.028 16.2463 213.654 16.609C213.291 16.9717 212.832 17.153 212.277 17.153ZM226.714 17.238C225.467 17.238 224.345 16.9773 223.348 16.456C222.362 15.9233 221.585 15.1867 221.019 14.246C220.452 13.3053 220.169 12.24 220.169 11.05C220.169 9.86 220.452 8.79467 221.019 7.854C221.585 6.91333 222.362 6.18233 223.348 5.661C224.345 5.12833 225.467 4.862 226.714 4.862C227.802 4.862 228.782 5.05467 229.655 5.44C230.527 5.82533 231.253 6.38067 231.831 7.106L229.689 9.044C228.918 8.11467 227.983 7.65 226.884 7.65C226.238 7.65 225.66 7.79167 225.15 8.075C224.651 8.35833 224.26 8.76067 223.977 9.282C223.705 9.792 223.569 10.3813 223.569 11.05C223.569 11.7187 223.705 12.3137 223.977 12.835C224.26 13.345 224.651 13.7417 225.15 14.025C225.66 14.3083 226.238 14.45 226.884 14.45C227.983 14.45 228.918 13.9853 229.689 13.056L231.831 14.994C231.253 15.7193 230.527 16.2747 229.655 16.66C228.782 17.0453 227.802 17.238 226.714 17.238ZM241.143 10.353H238.185V17H234.972V10.353H231.997V7.786H241.143V10.353ZM248.192 7.633C249.03 7.633 249.79 7.83133 250.47 8.228C251.161 8.61333 251.705 9.16867 252.102 9.894C252.51 10.608 252.714 11.441 252.714 12.393C252.714 13.345 252.51 14.1837 252.102 14.909C251.705 15.623 251.161 16.1783 250.47 16.575C249.79 16.9603 249.03 17.153 248.192 17.153C247.115 17.153 246.259 16.83 245.625 16.184V20.298H242.395V7.786H245.472V8.704C246.072 7.99 246.979 7.633 248.192 7.633ZM247.512 14.586C248.078 14.586 248.543 14.3933 248.906 14.008C249.268 13.6113 249.45 13.073 249.45 12.393C249.45 11.713 249.268 11.1803 248.906 10.795C248.543 10.3983 248.078 10.2 247.512 10.2C246.945 10.2 246.48 10.3983 246.118 10.795C245.755 11.1803 245.574 11.713 245.574 12.393C245.574 13.073 245.755 13.6113 246.118 14.008C246.48 14.3933 246.945 14.586 247.512 14.586ZM263.598 12.41C263.598 12.4327 263.581 12.699 263.547 13.209H256.849C256.985 13.685 257.245 14.0533 257.631 14.314C258.027 14.5633 258.52 14.688 259.11 14.688C259.552 14.688 259.931 14.6257 260.249 14.501C260.577 14.3763 260.906 14.1723 261.235 13.889L262.935 15.657C262.039 16.6543 260.73 17.153 259.008 17.153C257.931 17.153 256.985 16.949 256.169 16.541C255.353 16.133 254.718 15.5663 254.265 14.841C253.823 14.1157 253.602 13.294 253.602 12.376C253.602 11.4693 253.817 10.659 254.248 9.945C254.69 9.21967 255.296 8.653 256.067 8.245C256.837 7.837 257.704 7.633 258.668 7.633C259.586 7.633 260.419 7.82567 261.167 8.211C261.915 8.585 262.504 9.13467 262.935 9.86C263.377 10.574 263.598 11.424 263.598 12.41ZM258.685 9.928C258.186 9.928 257.767 10.0697 257.427 10.353C257.098 10.6363 256.888 11.0217 256.798 11.509H260.572C260.481 11.0217 260.266 10.6363 259.926 10.353C259.597 10.0697 259.183 9.928 258.685 9.928ZM274.247 17V12.155L271.884 16.184H270.507L268.212 12.087V17H265.305V7.786H268.705L271.272 12.597L274.094 7.786H277.137L277.154 17H274.247ZM288.003 7.786V17H285.13V14.501H283.668L282.036 17H278.619L280.659 14.059C280.047 13.787 279.577 13.4187 279.248 12.954C278.931 12.478 278.772 11.9113 278.772 11.254C278.772 10.1547 279.18 9.30467 279.996 8.704C280.812 8.092 281.934 7.786 283.362 7.786H288.003ZM283.43 10.336C282.523 10.336 282.07 10.6817 282.07 11.373C282.07 11.7357 282.178 12.002 282.393 12.172C282.62 12.342 282.96 12.427 283.413 12.427H285.13V10.336H283.43ZM290.174 7.786H293.387V11.203H296.702V7.786H299.932V17H296.702V13.77H293.387V17H290.174V7.786ZM302.11 7.786H305.323V11.203H308.638V7.786H311.868V17H308.638V13.77H305.323V17H302.11V7.786ZM317.804 7.633C319.334 7.633 320.501 7.98433 321.306 8.687C322.111 9.37833 322.513 10.4437 322.513 11.883V17H319.504V15.81C319.039 16.7053 318.133 17.153 316.784 17.153C316.07 17.153 315.452 17.0283 314.931 16.779C314.41 16.5297 314.013 16.1953 313.741 15.776C313.48 15.3453 313.35 14.858 313.35 14.314C313.35 13.4413 313.684 12.767 314.353 12.291C315.022 11.8037 316.053 11.56 317.447 11.56H319.283C319.226 10.5853 318.575 10.098 317.328 10.098C316.886 10.098 316.438 10.1717 315.985 10.319C315.532 10.455 315.146 10.6477 314.829 10.897L313.741 8.704C314.251 8.364 314.869 8.10333 315.594 7.922C316.331 7.72933 317.067 7.633 317.804 7.633ZM317.685 15.113C318.059 15.113 318.388 15.0223 318.671 14.841C318.954 14.6597 319.158 14.3933 319.283 14.042V13.243H317.889C316.948 13.243 316.478 13.5547 316.478 14.178C316.478 14.4613 316.586 14.688 316.801 14.858C317.016 15.028 317.311 15.113 317.685 15.113ZM333.126 7.786V17H330.253V14.501H328.791L327.159 17H323.742L325.782 14.059C325.17 13.787 324.7 13.4187 324.371 12.954C324.054 12.478 323.895 11.9113 323.895 11.254C323.895 10.1547 324.303 9.30467 325.119 8.704C325.935 8.092 327.057 7.786 328.485 7.786H333.126ZM328.553 10.336C327.646 10.336 327.193 10.6817 327.193 11.373C327.193 11.7357 327.301 12.002 327.516 12.172C327.743 12.342 328.083 12.427 328.536 12.427H330.253V10.336H328.553ZM336.623 13.328C337.178 13.328 337.637 13.5037 338 13.855C338.363 14.2063 338.544 14.6653 338.544 15.232C338.544 15.4927 338.51 15.7533 338.442 16.014C338.374 16.2747 338.221 16.6657 337.983 17.187L336.912 19.669H334.889L335.688 16.898C335.371 16.7507 335.121 16.5353 334.94 16.252C334.77 15.9573 334.685 15.6173 334.685 15.232C334.685 14.6653 334.866 14.2063 335.229 13.855C335.592 13.5037 336.056 13.328 336.623 13.328ZM355.956 14.416V18.904H352.964V17H347.167V18.904H344.158V14.416H344.498C345.053 14.4047 345.438 14.1043 345.654 13.515C345.869 12.9143 345.999 12.0757 346.045 10.999L346.164 7.786H354.681V14.416H355.956ZM348.952 11.237C348.918 12.0643 348.855 12.7273 348.765 13.226C348.674 13.7247 348.504 14.1213 348.255 14.416H351.451V10.353H348.986L348.952 11.237ZM358.653 17.153C358.109 17.153 357.65 16.9717 357.276 16.609C356.902 16.2463 356.715 15.7873 356.715 15.232C356.715 14.6653 356.896 14.2063 357.259 13.855C357.633 13.5037 358.098 13.328 358.653 13.328C359.22 13.328 359.684 13.5037 360.047 13.855C360.41 14.2063 360.591 14.6653 360.591 15.232C360.591 15.7873 360.404 16.2463 360.03 16.609C359.667 16.9717 359.208 17.153 358.653 17.153ZM375.793 14.331V17H366.528V14.892L370.982 10.727C371.412 10.319 371.701 9.97333 371.849 9.69C371.996 9.39533 372.07 9.10067 372.07 8.806C372.07 8.42067 371.939 8.12033 371.679 7.905C371.418 7.68967 371.038 7.582 370.54 7.582C370.098 7.582 369.69 7.684 369.316 7.888C368.953 8.08067 368.653 8.364 368.415 8.738L365.916 7.344C366.38 6.57333 367.032 5.967 367.871 5.525C368.709 5.083 369.701 4.862 370.846 4.862C371.752 4.862 372.551 5.00933 373.243 5.304C373.945 5.59867 374.489 6.02367 374.875 6.579C375.271 7.123 375.47 7.75767 375.47 8.483C375.47 9.129 375.328 9.741 375.045 10.319C374.773 10.8857 374.24 11.5317 373.447 12.257L371.203 14.331H375.793ZM382.009 17.238C380.989 17.238 380.082 16.9943 379.289 16.507C378.495 16.0197 377.872 15.3113 377.419 14.382C376.977 13.4413 376.756 12.3307 376.756 11.05C376.756 9.76933 376.977 8.66433 377.419 7.735C377.872 6.79433 378.495 6.08033 379.289 5.593C380.082 5.10567 380.989 4.862 382.009 4.862C383.017 4.862 383.918 5.10567 384.712 5.593C385.505 6.08033 386.123 6.79433 386.565 7.735C387.018 8.66433 387.245 9.76933 387.245 11.05C387.245 12.3307 387.018 13.4413 386.565 14.382C386.123 15.3113 385.505 16.0197 384.712 16.507C383.918 16.9943 383.017 17.238 382.009 17.238ZM382.009 14.484C382.575 14.484 383.023 14.212 383.352 13.668C383.692 13.1127 383.862 12.24 383.862 11.05C383.862 9.86 383.692 8.993 383.352 8.449C383.023 7.89367 382.575 7.616 382.009 7.616C381.431 7.616 380.972 7.89367 380.632 8.449C380.303 8.993 380.139 9.86 380.139 11.05C380.139 12.24 380.303 13.1127 380.632 13.668C380.972 14.212 381.431 14.484 382.009 14.484ZM42.213 41.298C41.5103 40.278 40.9663 39.088 40.581 37.728C40.207 36.3567 40.02 34.8947 40.02 33.342C40.02 31.7893 40.207 30.333 40.581 28.973C40.9663 27.6017 41.5103 26.406 42.213 25.386H45.307C44.5703 26.6893 44.032 27.987 43.692 29.279C43.352 30.5597 43.182 31.914 43.182 33.342C43.182 34.77 43.352 36.13 43.692 37.422C44.032 38.7027 44.5703 39.9947 45.307 41.298H42.213ZM55.2204 31.778C55.9231 32.0047 56.4557 32.356 56.8184 32.832C57.1924 33.308 57.3794 33.8973 57.3794 34.6C57.3794 35.654 56.9657 36.487 56.1384 37.099C55.3224 37.6997 54.1607 38 52.6534 38H46.5504V26.1H52.3304C53.7584 26.1 54.8634 26.372 55.6454 26.916C56.4387 27.4487 56.8354 28.208 56.8354 29.194C56.8354 29.772 56.6937 30.282 56.4104 30.724C56.1384 31.166 55.7417 31.5173 55.2204 31.778ZM49.8654 30.86H52.0074C52.9594 30.86 53.4354 30.469 53.4354 29.687C53.4354 28.905 52.9594 28.514 52.0074 28.514H49.8654V30.86ZM52.5174 35.586C53.4921 35.586 53.9794 35.1723 53.9794 34.345C53.9794 33.5403 53.4921 33.138 52.5174 33.138H49.8654V35.586H52.5174ZM69.9108 35.416V39.904H66.9188V38H61.1218V39.904H58.1128V35.416H58.4528C59.0081 35.4047 59.3934 35.1043 59.6088 34.515C59.8241 33.9143 59.9544 33.0757 59.9998 31.999L60.1188 28.786H68.6358V35.416H69.9108ZM62.9068 32.237C62.8728 33.0643 62.8104 33.7273 62.7198 34.226C62.6291 34.7247 62.4591 35.1213 62.2098 35.416H65.4058V31.353H62.9408L62.9068 32.237ZM75.8379 38.153C74.8519 38.153 73.9623 37.949 73.1689 37.541C72.3756 37.133 71.7523 36.5663 71.2989 35.841C70.8569 35.1157 70.6359 34.294 70.6359 33.376C70.6359 32.4693 70.8569 31.6533 71.2989 30.928C71.7523 30.2027 72.3699 29.6417 73.1519 29.245C73.9453 28.837 74.8406 28.633 75.8379 28.633C76.8353 28.633 77.7306 28.837 78.5239 29.245C79.3173 29.6417 79.9349 30.2027 80.3769 30.928C80.8189 31.642 81.0399 32.458 81.0399 33.376C81.0399 34.294 80.8189 35.1157 80.3769 35.841C79.9349 36.5663 79.3173 37.133 78.5239 37.541C77.7306 37.949 76.8353 38.153 75.8379 38.153ZM75.8379 35.586C76.4046 35.586 76.8693 35.3933 77.2319 35.008C77.5946 34.6113 77.7759 34.0673 77.7759 33.376C77.7759 32.696 77.5946 32.1633 77.2319 31.778C76.8693 31.3927 76.4046 31.2 75.8379 31.2C75.2713 31.2 74.8066 31.3927 74.4439 31.778C74.0813 32.1633 73.8999 32.696 73.8999 33.376C73.8999 34.0673 74.0813 34.6113 74.4439 35.008C74.8066 35.3933 75.2713 35.586 75.8379 35.586ZM93.2858 35.416V39.904H90.2938V38H84.4968V39.904H81.4878V35.416H81.8278C82.3831 35.4047 82.7684 35.1043 82.9838 34.515C83.1991 33.9143 83.3294 33.0757 83.3748 31.999L83.4938 28.786H92.0108V35.416H93.2858ZM86.2818 32.237C86.2478 33.0643 86.1854 33.7273 86.0948 34.226C86.0041 34.7247 85.8341 35.1213 85.5848 35.416H88.7808V31.353H86.3158L86.2818 32.237ZM107.05 33.172C108.104 33.5233 108.631 34.2487 108.631 35.348C108.631 36.1753 108.308 36.827 107.662 37.303C107.016 37.7677 106.064 38 104.806 38H99.6212V28.786H104.568C105.77 28.786 106.699 28.9957 107.356 29.415C108.025 29.8343 108.359 30.4237 108.359 31.183C108.359 31.625 108.246 32.016 108.019 32.356C107.793 32.696 107.47 32.968 107.05 33.172ZM102.511 32.492H104.279C105.027 32.492 105.401 32.2143 105.401 31.659C105.401 31.1263 105.027 30.86 104.279 30.86H102.511V32.492ZM104.517 35.909C105.299 35.909 105.69 35.6257 105.69 35.059C105.69 34.4923 105.311 34.209 104.551 34.209H102.511V35.909H104.517ZM118.967 28.633C120.497 28.633 121.664 28.9843 122.469 29.687C123.274 30.3783 123.676 31.4437 123.676 32.883V38H120.667V36.81C120.202 37.7053 119.296 38.153 117.947 38.153C117.233 38.153 116.615 38.0283 116.094 37.779C115.573 37.5297 115.176 37.1953 114.904 36.776C114.643 36.3453 114.513 35.858 114.513 35.314C114.513 34.4413 114.847 33.767 115.516 33.291C116.185 32.8037 117.216 32.56 118.61 32.56H120.446C120.389 31.5853 119.738 31.098 118.491 31.098C118.049 31.098 117.601 31.1717 117.148 31.319C116.695 31.455 116.309 31.6477 115.992 31.897L114.904 29.704C115.414 29.364 116.032 29.1033 116.757 28.922C117.494 28.7293 118.23 28.633 118.967 28.633ZM118.848 36.113C119.222 36.113 119.551 36.0223 119.834 35.841C120.117 35.6597 120.321 35.3933 120.446 35.042V34.243H119.052C118.111 34.243 117.641 34.5547 117.641 35.178C117.641 35.4613 117.749 35.688 117.964 35.858C118.179 36.028 118.474 36.113 118.848 36.113ZM131.416 28.633C132.255 28.633 133.014 28.8313 133.694 29.228C134.386 29.6133 134.93 30.1687 135.326 30.894C135.734 31.608 135.938 32.441 135.938 33.393C135.938 34.345 135.734 35.1837 135.326 35.909C134.93 36.623 134.386 37.1783 133.694 37.575C133.014 37.9603 132.255 38.153 131.416 38.153C130.34 38.153 129.484 37.83 128.849 37.184V41.298H125.619V28.786H128.696V29.704C129.297 28.99 130.204 28.633 131.416 28.633ZM130.736 35.586C131.303 35.586 131.768 35.3933 132.13 35.008C132.493 34.6113 132.674 34.073 132.674 33.393C132.674 32.713 132.493 32.1803 132.13 31.795C131.768 31.3983 131.303 31.2 130.736 31.2C130.17 31.2 129.705 31.3983 129.342 31.795C128.98 32.1803 128.798 32.713 128.798 33.393C128.798 34.073 128.98 34.6113 129.342 35.008C129.705 35.3933 130.17 35.586 130.736 35.586ZM141.807 34.719H140.719V38H137.489V28.786H140.719V32.186H141.875L144.136 28.786H147.553L144.459 33.206L147.757 38H143.949L141.807 34.719ZM158.14 28.786L154.162 38.374C153.697 39.5073 153.13 40.3007 152.462 40.754C151.793 41.2187 150.977 41.451 150.014 41.451C149.526 41.451 149.033 41.3717 148.535 41.213C148.047 41.0657 147.651 40.8673 147.345 40.618L148.467 38.357C148.648 38.527 148.863 38.6573 149.113 38.748C149.373 38.85 149.634 38.901 149.895 38.901C150.201 38.901 150.45 38.8387 150.643 38.714C150.847 38.5893 151.017 38.391 151.153 38.119L147.209 28.786H150.524L152.785 34.413L155.063 28.786H158.14ZM159.982 34.328C160.538 34.328 160.997 34.5037 161.359 34.855C161.722 35.2063 161.903 35.6653 161.903 36.232C161.903 36.4927 161.869 36.7533 161.801 37.014C161.733 37.2747 161.58 37.6657 161.342 38.187L160.271 40.669H158.248L159.047 37.898C158.73 37.7507 158.481 37.5353 158.299 37.252C158.129 36.9573 158.044 36.6173 158.044 36.232C158.044 35.6653 158.226 35.2063 158.588 34.855C158.951 34.5037 159.416 34.328 159.982 34.328ZM175.847 33.172C176.901 33.5233 177.428 34.2487 177.428 35.348C177.428 36.1753 177.105 36.827 176.459 37.303C175.813 37.7677 174.861 38 173.603 38H168.418V28.786H173.365C174.566 28.786 175.496 28.9957 176.153 29.415C176.822 29.8343 177.156 30.4237 177.156 31.183C177.156 31.625 177.043 32.016 176.816 32.356C176.589 32.696 176.266 32.968 175.847 33.172ZM171.308 32.492H173.076C173.824 32.492 174.198 32.2143 174.198 31.659C174.198 31.1263 173.824 30.86 173.076 30.86H171.308V32.492ZM173.314 35.909C174.096 35.909 174.487 35.6257 174.487 35.059C174.487 34.4923 174.107 34.209 173.348 34.209H171.308V35.909H173.314ZM184.33 31.642C185.542 31.6533 186.455 31.9253 187.067 32.458C187.679 32.9907 187.985 33.75 187.985 34.736C187.985 35.7673 187.628 36.572 186.914 37.15C186.211 37.728 185.214 38.0113 183.922 38H179.06V28.786H182.273V31.642H184.33ZM188.767 28.786H191.98V38H188.767V28.786ZM183.599 35.79C184.415 35.79 184.823 35.4217 184.823 34.685C184.823 34.3223 184.721 34.056 184.517 33.886C184.313 33.716 184.007 33.6253 183.599 33.614H182.273V35.773L183.599 35.79ZM201.596 33.172C202.65 33.5233 203.177 34.2487 203.177 35.348C203.177 36.1753 202.854 36.827 202.208 37.303C201.562 37.7677 200.61 38 199.352 38H194.167V28.786H199.114C200.315 28.786 201.245 28.9957 201.902 29.415C202.571 29.8343 202.905 30.4237 202.905 31.183C202.905 31.625 202.792 32.016 202.565 32.356C202.338 32.696 202.015 32.968 201.596 33.172ZM197.057 32.492H198.825C199.573 32.492 199.947 32.2143 199.947 31.659C199.947 31.1263 199.573 30.86 198.825 30.86H197.057V32.492ZM199.063 35.909C199.845 35.909 200.236 35.6257 200.236 35.059C200.236 34.4923 199.856 34.209 199.097 34.209H197.057V35.909H199.063ZM214.142 33.41C214.142 33.4327 214.125 33.699 214.091 34.209H207.393C207.529 34.685 207.789 35.0533 208.175 35.314C208.571 35.5633 209.064 35.688 209.654 35.688C210.096 35.688 210.475 35.6257 210.793 35.501C211.121 35.3763 211.45 35.1723 211.779 34.889L213.479 36.657C212.583 37.6543 211.274 38.153 209.552 38.153C208.475 38.153 207.529 37.949 206.713 37.541C205.897 37.133 205.262 36.5663 204.809 35.841C204.367 35.1157 204.146 34.294 204.146 33.376C204.146 32.4693 204.361 31.659 204.792 30.945C205.234 30.2197 205.84 29.653 206.611 29.245C207.381 28.837 208.248 28.633 209.212 28.633C210.13 28.633 210.963 28.8257 211.711 29.211C212.459 29.585 213.048 30.1347 213.479 30.86C213.921 31.574 214.142 32.424 214.142 33.41ZM209.229 30.928C208.73 30.928 208.311 31.0697 207.971 31.353C207.642 31.6363 207.432 32.0217 207.342 32.509H211.116C211.025 32.0217 210.81 31.6363 210.47 31.353C210.141 31.0697 209.727 30.928 209.229 30.928ZM220.473 38.153C219.453 38.153 218.54 37.949 217.736 37.541C216.931 37.133 216.302 36.5663 215.849 35.841C215.407 35.1157 215.186 34.294 215.186 33.376C215.186 32.458 215.407 31.642 215.849 30.928C216.302 30.2027 216.931 29.6417 217.736 29.245C218.54 28.837 219.453 28.633 220.473 28.633C221.515 28.633 222.416 28.8597 223.176 29.313C223.935 29.755 224.473 30.3727 224.791 31.166L222.292 32.441C221.872 31.6137 221.26 31.2 220.456 31.2C219.878 31.2 219.396 31.3927 219.011 31.778C218.637 32.1633 218.45 32.696 218.45 33.376C218.45 34.0673 218.637 34.6113 219.011 35.008C219.396 35.3933 219.878 35.586 220.456 35.586C221.26 35.586 221.872 35.1723 222.292 34.345L224.791 35.62C224.473 36.4133 223.935 37.0367 223.176 37.49C222.416 37.932 221.515 38.153 220.473 38.153ZM230.46 34.719H229.372V38H226.142V28.786H229.372V32.186H230.528L232.789 28.786H236.206L233.112 33.206L236.41 38H232.602L230.46 34.719ZM241.072 28.633C242.602 28.633 243.769 28.9843 244.574 29.687C245.378 30.3783 245.781 31.4437 245.781 32.883V38H242.772V36.81C242.307 37.7053 241.4 38.153 240.052 38.153C239.338 38.153 238.72 38.0283 238.199 37.779C237.677 37.5297 237.281 37.1953 237.009 36.776C236.748 36.3453 236.618 35.858 236.618 35.314C236.618 34.4413 236.952 33.767 237.621 33.291C238.289 32.8037 239.321 32.56 240.715 32.56H242.551C242.494 31.5853 241.842 31.098 240.596 31.098C240.154 31.098 239.706 31.1717 239.253 31.319C238.799 31.455 238.414 31.6477 238.097 31.897L237.009 29.704C237.519 29.364 238.136 29.1033 238.862 28.922C239.598 28.7293 240.335 28.633 241.072 28.633ZM240.953 36.113C241.327 36.113 241.655 36.0223 241.939 35.841C242.222 35.6597 242.426 35.3933 242.551 35.042V34.243H241.157C240.216 34.243 239.746 34.5547 239.746 35.178C239.746 35.4613 239.853 35.688 240.069 35.858C240.284 36.028 240.579 36.113 240.953 36.113ZM254.915 28.157C255.232 28.3043 255.476 28.5253 255.646 28.82C255.827 29.1033 255.918 29.4377 255.918 29.823C255.918 30.3897 255.737 30.8487 255.374 31.2C255.011 31.5513 254.547 31.727 253.98 31.727C253.413 31.727 252.949 31.5513 252.586 31.2C252.223 30.8487 252.042 30.3897 252.042 29.823C252.042 29.5623 252.076 29.3017 252.144 29.041C252.212 28.7803 252.365 28.395 252.603 27.885L253.691 25.386H255.714L254.915 28.157ZM259.369 28.157C259.686 28.3043 259.93 28.5253 260.1 28.82C260.281 29.1033 260.372 29.4377 260.372 29.823C260.372 30.3897 260.191 30.8487 259.828 31.2C259.465 31.5513 259.001 31.727 258.434 31.727C257.867 31.727 257.403 31.5513 257.04 31.2C256.677 30.8487 256.496 30.3897 256.496 29.823C256.496 29.5623 256.53 29.3017 256.598 29.041C256.666 28.7803 256.819 28.395 257.057 27.885L258.145 25.386H260.168L259.369 28.157ZM273.959 35.331V40.397H270.882V38H263.266V40.397H260.172V35.331H260.597C261.3 35.3197 261.793 34.838 262.076 33.886C262.371 32.934 262.552 31.5627 262.62 29.772L262.756 26.1H272.344V35.331H273.959ZM265.561 30.061C265.516 31.3303 265.414 32.407 265.255 33.291C265.097 34.175 264.853 34.855 264.524 35.331H269.029V28.769H265.612L265.561 30.061ZM279.871 38.153C278.885 38.153 277.995 37.949 277.202 37.541C276.409 37.133 275.785 36.5663 275.332 35.841C274.89 35.1157 274.669 34.294 274.669 33.376C274.669 32.4693 274.89 31.6533 275.332 30.928C275.785 30.2027 276.403 29.6417 277.185 29.245C277.978 28.837 278.874 28.633 279.871 28.633C280.868 28.633 281.764 28.837 282.557 29.245C283.35 29.6417 283.968 30.2027 284.41 30.928C284.852 31.642 285.073 32.458 285.073 33.376C285.073 34.294 284.852 35.1157 284.41 35.841C283.968 36.5663 283.35 37.133 282.557 37.541C281.764 37.949 280.868 38.153 279.871 38.153ZM279.871 35.586C280.438 35.586 280.902 35.3933 281.265 35.008C281.628 34.6113 281.809 34.0673 281.809 33.376C281.809 32.696 281.628 32.1633 281.265 31.778C280.902 31.3927 280.438 31.2 279.871 31.2C279.304 31.2 278.84 31.3927 278.477 31.778C278.114 32.1633 277.933 32.696 277.933 33.376C277.933 34.0673 278.114 34.6113 278.477 35.008C278.84 35.3933 279.304 35.586 279.871 35.586ZM290.906 34.719H289.818V38H286.588V28.786H289.818V32.186H290.974L293.235 28.786H296.652L293.558 33.206L296.856 38H293.048L290.906 34.719ZM306.122 31.353H303.164V38H299.951V31.353H296.976V28.786H306.122V31.353ZM311.547 38.153C310.561 38.153 309.671 37.949 308.878 37.541C308.085 37.133 307.461 36.5663 307.008 35.841C306.566 35.1157 306.345 34.294 306.345 33.376C306.345 32.4693 306.566 31.6533 307.008 30.928C307.461 30.2027 308.079 29.6417 308.861 29.245C309.654 28.837 310.55 28.633 311.547 28.633C312.544 28.633 313.44 28.837 314.233 29.245C315.026 29.6417 315.644 30.2027 316.086 30.928C316.528 31.642 316.749 32.458 316.749 33.376C316.749 34.294 316.528 35.1157 316.086 35.841C315.644 36.5663 315.026 37.133 314.233 37.541C313.44 37.949 312.544 38.153 311.547 38.153ZM311.547 35.586C312.114 35.586 312.578 35.3933 312.941 35.008C313.304 34.6113 313.485 34.0673 313.485 33.376C313.485 32.696 313.304 32.1633 312.941 31.778C312.578 31.3927 312.114 31.2 311.547 31.2C310.98 31.2 310.516 31.3927 310.153 31.778C309.79 32.1633 309.609 32.696 309.609 33.376C309.609 34.0673 309.79 34.6113 310.153 35.008C310.516 35.3933 310.98 35.586 311.547 35.586ZM324.061 28.633C324.899 28.633 325.659 28.8313 326.339 29.228C327.03 29.6133 327.574 30.1687 327.971 30.894C328.379 31.608 328.583 32.441 328.583 33.393C328.583 34.345 328.379 35.1837 327.971 35.909C327.574 36.623 327.03 37.1783 326.339 37.575C325.659 37.9603 324.899 38.153 324.061 38.153C322.984 38.153 322.128 37.83 321.494 37.184V41.298H318.264V28.786H321.341V29.704C321.941 28.99 322.848 28.633 324.061 28.633ZM323.381 35.586C323.947 35.586 324.412 35.3933 324.775 35.008C325.137 34.6113 325.319 34.073 325.319 33.393C325.319 32.713 325.137 32.1803 324.775 31.795C324.412 31.3983 323.947 31.2 323.381 31.2C322.814 31.2 322.349 31.3983 321.987 31.795C321.624 32.1803 321.443 32.713 321.443 33.393C321.443 34.073 321.624 34.6113 321.987 35.008C322.349 35.3933 322.814 35.586 323.381 35.586ZM335.03 28.786H338.26V38H335.03V28.786ZM336.645 27.766C336.056 27.766 335.58 27.6017 335.217 27.273C334.854 26.9443 334.673 26.5363 334.673 26.049C334.673 25.5617 334.854 25.1537 335.217 24.825C335.58 24.4963 336.056 24.332 336.645 24.332C337.234 24.332 337.71 24.4907 338.073 24.808C338.436 25.114 338.617 25.5107 338.617 25.998C338.617 26.508 338.436 26.933 338.073 27.273C337.71 27.6017 337.234 27.766 336.645 27.766ZM340.597 26.1H350.542V28.701H343.912V30.622H346.989C348.429 30.622 349.534 30.928 350.304 31.54C351.075 32.152 351.46 33.0303 351.46 34.175C351.46 35.3763 351.03 36.317 350.168 36.997C349.307 37.6657 348.1 38 346.547 38H340.597V26.1ZM346.326 35.586C346.893 35.586 347.324 35.4727 347.618 35.246C347.913 35.0193 348.06 34.6963 348.06 34.277C348.06 33.4383 347.482 33.019 346.326 33.019H343.912V35.586H346.326ZM357.55 38.153C356.564 38.153 355.674 37.949 354.881 37.541C354.088 37.133 353.464 36.5663 353.011 35.841C352.569 35.1157 352.348 34.294 352.348 33.376C352.348 32.4693 352.569 31.6533 353.011 30.928C353.464 30.2027 354.082 29.6417 354.864 29.245C355.657 28.837 356.553 28.633 357.55 28.633C358.547 28.633 359.443 28.837 360.236 29.245C361.029 29.6417 361.647 30.2027 362.089 30.928C362.531 31.642 362.752 32.458 362.752 33.376C362.752 34.294 362.531 35.1157 362.089 35.841C361.647 36.5663 361.029 37.133 360.236 37.541C359.443 37.949 358.547 38.153 357.55 38.153ZM357.55 35.586C358.117 35.586 358.581 35.3933 358.944 35.008C359.307 34.6113 359.488 34.0673 359.488 33.376C359.488 32.696 359.307 32.1633 358.944 31.778C358.581 31.3927 358.117 31.2 357.55 31.2C356.983 31.2 356.519 31.3927 356.156 31.778C355.793 32.1633 355.612 32.696 355.612 33.376C355.612 34.0673 355.793 34.6113 356.156 35.008C356.519 35.3933 356.983 35.586 357.55 35.586ZM373.485 28.786V38H370.255V31.353H367.926L367.858 32.764C367.812 33.9653 367.693 34.957 367.501 35.739C367.308 36.521 366.991 37.133 366.549 37.575C366.107 38.0057 365.5 38.221 364.73 38.221C364.333 38.221 363.812 38.1473 363.166 38L363.302 35.365C363.506 35.3877 363.642 35.399 363.71 35.399C364.061 35.399 364.327 35.2857 364.509 35.059C364.69 34.8323 364.815 34.532 364.883 34.158C364.951 33.7727 364.996 33.2627 365.019 32.628L365.155 28.786H373.485ZM375.655 28.786H378.868V33.614L382.727 28.786H385.702V38H382.472V33.155L378.647 38H375.655V28.786ZM396.102 31.353H393.144V38H389.931V31.353H386.956V28.786H396.102V31.353ZM398.879 25.233C399.434 25.233 399.893 25.4087 400.256 25.76C400.619 26.1113 400.8 26.5703 400.8 27.137C400.8 27.3977 400.766 27.6583 400.698 27.919C400.63 28.1797 400.483 28.5707 400.256 29.092L399.168 31.574H397.145L397.944 28.803C397.627 28.6557 397.377 28.4403 397.196 28.157C397.026 27.8623 396.941 27.5223 396.941 27.137C396.941 26.5703 397.122 26.1113 397.485 25.76C397.848 25.4087 398.312 25.233 398.879 25.233ZM403.333 25.233C403.888 25.233 404.347 25.4087 404.71 25.76C405.073 26.1113 405.254 26.5703 405.254 27.137C405.254 27.3977 405.22 27.6583 405.152 27.919C405.084 28.1797 404.937 28.5707 404.71 29.092L403.622 31.574H401.599L402.398 28.803C402.081 28.6557 401.831 28.4403 401.65 28.157C401.48 27.8623 401.395 27.5223 401.395 27.137C401.395 26.5703 401.576 26.1113 401.939 25.76C402.302 25.4087 402.766 25.233 403.333 25.233Z" fill="#313131"/>
<defs>
<linearGradient id="paint0_linear" x1="15" y1="8" x2="15" y2="38" gradientUnits="userSpaceOnUse">
<stop stop-color="#E76711"/>
<stop offset="1" stop-color="#7D1366"/>
</linearGradient>
</defs>
</svg>
