<svg width="35" height="35" viewBox="0 0 35 35" fill="none" xmlns="http://www.w3.org/2000/svg">
<path d="M21.3548 17.4997L34.4409 4.41313C34.8008 4.05289 34.9994 3.57228 35 3.0598C35 2.54703 34.8014 2.06585 34.4409 1.70618L33.2941 0.559716C32.9336 0.198619 32.453 0.000854492 31.9399 0.000854492C31.4277 0.000854492 30.9471 0.198619 30.5866 0.559716L17.5006 13.6454L4.41398 0.559716C4.05402 0.198619 3.57313 0.000854492 3.06037 0.000854492C2.54817 0.000854492 2.06728 0.198619 1.70732 0.559716L0.56 1.70618C-0.186667 2.45285 -0.186667 3.66732 0.56 4.41313L13.6463 17.4997L0.56 30.5857C0.199756 30.9465 0.00142276 31.4272 0.00142276 31.9396C0.00142276 32.4521 0.199756 32.9327 0.56 33.2933L1.70703 34.4397C2.06699 34.8005 2.54817 34.9986 3.06008 34.9986C3.57285 34.9986 4.05374 34.8005 4.4137 34.4397L17.5003 21.3537L30.5863 34.4397C30.9468 34.8005 31.4274 34.9986 31.9396 34.9986H31.9402C32.4527 34.9986 32.9333 34.8005 33.2938 34.4397L34.4406 33.2933C34.8005 32.933 34.9991 32.4521 34.9991 31.9396C34.9991 31.4272 34.8005 30.9465 34.4406 30.586L21.3548 17.4997Z" fill="#313131"/>
</svg>
