<svg width="30" height="30" viewBox="0 0 30 30" fill="none" xmlns="http://www.w3.org/2000/svg">
<path d="M15 30C23.2843 30 30 23.2843 30 15C30 6.71573 23.2843 0 15 0C6.71573 0 0 6.71573 0 15C0 23.2843 6.71573 30 15 30Z" fill="#32BA7C"/>
<path d="M11.1672 21.7666L18.8802 29.4795C25.2682 27.776 30 21.9558 30 15C30 14.858 30 14.7161 30 14.5741L23.9433 8.99054L11.1672 21.7666Z" fill="#0AA06E"/>
<path d="M15.3787 18.3596C16.0412 19.0221 16.0412 20.1577 15.3787 20.8202L14.0064 22.1924C13.344 22.8549 12.2083 22.8549 11.5459 22.1924L5.5364 16.1356C4.87394 15.4732 4.87394 14.3375 5.5364 13.6751L6.90864 12.3028C7.5711 11.6404 8.70675 11.6404 9.36921 12.3028L15.3787 18.3596Z" fill="white"/>
<path d="M20.6311 7.90218C21.2935 7.23972 22.4292 7.23972 23.0916 7.90218L24.4639 9.27442C25.1263 9.93688 25.1263 11.0725 24.4639 11.735L14.0538 22.0978C13.3913 22.7602 12.2557 22.7602 11.5932 22.0978L10.221 20.7255C9.55851 20.0631 9.55851 18.9274 10.221 18.265L20.6311 7.90218Z" fill="white"/>
</svg>
