<svg width="20" height="20" viewBox="0 0 20 20" fill="none" xmlns="http://www.w3.org/2000/svg">
<g clip-path="url(#clip0)">
<path d="M10 19.7503C15.5228 19.7503 20 15.3291 20 9.87517C20 4.42126 15.5228 0 10 0C4.47715 0 0 4.42126 0 9.87517C0 15.3291 4.47715 19.7503 10 19.7503Z" fill="#039BE5"/>
<path d="M4.57584 9.66122L14.2175 5.99012C14.665 5.83047 15.0558 6.09793 14.9108 6.76614L14.9117 6.76532L13.27 14.4029C13.1483 14.9444 12.8225 15.0761 12.3667 14.821L9.86667 13.0015L8.66084 14.1487C8.5275 14.2803 8.415 14.3914 8.15667 14.3914L8.33417 11.879L12.9675 7.74543C13.1692 7.57015 12.9225 7.4714 12.6567 7.64586L6.93084 11.2059L4.4625 10.4455C3.92667 10.2776 3.91501 9.91632 4.57584 9.66122Z" fill="white"/>
</g>
<defs>
<clipPath id="clip0">
<rect width="20" height="19.7503" fill="white"/>
</clipPath>
</defs>
</svg>
