<svg width="20" height="20" viewBox="0 0 20 20" fill="none" xmlns="http://www.w3.org/2000/svg">
<g clip-path="url(#clip0)">
<path d="M10.0025 0H9.9975C4.48375 0 0 4.42901 0 9.87517C0 12.0354 0.705 14.0376 1.90375 15.6633L0.6575 19.3319L4.50125 18.1185C6.0825 19.1529 7.96875 19.7503 10.0025 19.7503C15.5162 19.7503 20 15.3201 20 9.87517C20 4.43025 15.5162 0 10.0025 0Z" fill="#4CAF50"/>
<path d="M15.8213 13.945C15.58 14.6177 14.6225 15.1756 13.8588 15.3386C13.3363 15.4484 12.6538 15.5361 10.3563 14.5955C7.4175 13.3932 5.525 10.4442 5.3775 10.2529C5.23625 10.0615 4.19 8.69136 4.19 7.27427C4.19 5.85719 4.91875 5.16716 5.2125 4.8709C5.45375 4.62773 5.8525 4.51663 6.235 4.51663C6.35875 4.51663 6.47 4.5228 6.57 4.52774C6.86375 4.54009 7.01125 4.55737 7.205 5.01533C7.44625 5.58932 8.03375 7.00641 8.10375 7.15207C8.175 7.29773 8.24625 7.49523 8.14625 7.68656C8.0525 7.88407 7.97 7.97171 7.8225 8.13959C7.675 8.30746 7.535 8.43584 7.3875 8.61606C7.2525 8.77283 7.1 8.94071 7.27 9.23079C7.44 9.5147 8.0275 10.4615 8.8925 11.2219C10.0088 12.2032 10.9138 12.5168 11.2375 12.6501C11.4788 12.7488 11.7663 12.7254 11.9425 12.5402C12.1663 12.302 12.4425 11.907 12.7238 11.5181C12.9238 11.2392 13.1763 11.2046 13.4413 11.3033C13.7113 11.3959 15.14 12.0934 15.4338 12.2378C15.7275 12.3834 15.9213 12.4526 15.9925 12.5748C16.0625 12.697 16.0625 13.271 15.8213 13.945Z" fill="#FAFAFA"/>
</g>
<defs>
<clipPath id="clip0">
<rect width="20" height="19.7503" fill="white"/>
</clipPath>
</defs>
</svg>
